<svg
          width="870.9"
          height="71.101"
          viewBox="0 0 870.9 71.101"
          xmlns="http://www.w3.org/2000/svg"
        >
          <g
            id="svgGroup"
            stroke-linecap="round"
            fill-rule="evenodd"
            font-size="9pt"
            stroke="#000"
            stroke-width="0.25mm"
            fill="#000"
            style={{ stroke: "#000", strokeWidth: "0.25mm", fill: "#000" }}
          >
            <path
              d="M 29.9 69.601 L 26.3 69.601 L 26.3 17.601 L 0 17.601 L 0 0.001 L 56.2 0.001 L 56.2 17.601 L 29.9 17.601 L 29.9 69.601 Z"
              id="0"
              vector-effect="non-scaling-stroke"
            />
            <path
              d="M 78.1 69.601 L 78.1 0.001 L 127.1 0.001 L 127.1 3.701 L 81.8 3.701 L 81.8 31.901 L 121.2 31.901 L 121.2 35.601 L 81.8 35.601 L 81.8 65.901 L 127.1 65.901 L 127.1 69.601 L 78.1 69.601 Z"
              id="1"
              vector-effect="non-scaling-stroke"
            />
            <path
              d="M 203.5 28.101 L 203.5 41.501 Q 203.5 49.101 199.7 55.551 Q 195.9 62.001 189.45 65.801 Q 183 69.601 175.4 69.601 L 149.7 69.601 L 149.7 0.001 L 175.4 0.001 Q 183 0.001 189.45 3.801 Q 195.9 7.601 199.7 14.051 Q 203.5 20.501 203.5 28.101 Z M 199.8 41.501 L 199.8 28.101 Q 199.8 21.501 196.5 15.901 Q 193.2 10.301 187.55 7.001 Q 181.9 3.701 175.3 3.701 L 153.4 3.701 L 153.4 65.901 L 175.3 65.901 Q 181.9 65.901 187.55 62.601 Q 193.2 59.301 196.5 53.701 Q 199.8 48.101 199.8 41.501 Z"
              id="2"
              vector-effect="non-scaling-stroke"
            />
            <path
              d="M 354.1 0.001 L 325.1 29.001 L 354.1 69.601 L 298.1 69.601 L 298.1 0.001 L 354.1 0.001 Z M 347 65.901 L 322.5 31.601 L 301.8 52.301 L 301.8 65.901 L 347 65.901 Z"
              id="4"
              vector-effect="non-scaling-stroke"
            />
            <path
              d="M 409.2 44.901 L 426.9 69.601 L 422.5 69.601 L 405.4 45.601 L 402.2 45.701 L 377.1 45.701 L 377.1 69.601 L 373.4 69.601 L 373.4 0.001 L 399.9 0.001 A 59.758 59.758 0 0 1 403.024 0.078 Q 404.56 0.159 405.905 0.323 A 30.566 30.566 0 0 1 407.45 0.551 A 24.562 24.562 0 0 1 411.348 1.552 A 20.896 20.896 0 0 1 413.2 2.301 Q 419.2 5.101 422.65 10.601 Q 426.1 16.101 426.1 22.801 Q 426.1 30.601 421.35 36.751 Q 416.6 42.901 409.2 44.901 Z M 377.1 42.001 L 403.2 42.001 Q 408.4 42.001 412.8 39.401 Q 417.2 36.801 419.8 32.401 Q 422.4 28.001 422.4 22.801 Q 422.4 17.001 419.35 12.301 Q 416.3 7.601 410.9 5.301 Q 407 3.701 399.9 3.701 L 377.1 3.701 L 377.1 42.001 Z"
              id="5"
              vector-effect="non-scaling-stroke"
            />
            <path
              d="M 448.1 69.601 L 448.1 0.001 L 497.1 0.001 L 497.1 3.701 L 451.8 3.701 L 451.8 31.901 L 491.2 31.901 L 491.2 35.601 L 451.8 35.601 L 451.8 65.901 L 497.1 65.901 L 497.1 69.601 L 448.1 69.601 Z"
              id="6"
              vector-effect="non-scaling-stroke"
            />
            <path
              d="M 518 43.001 L 518 0.001 L 521.7 0.001 L 521.7 43.001 Q 521.7 49.601 525 55.201 Q 528.3 60.801 533.9 64.101 Q 539.5 67.401 546.1 67.401 Q 552.7 67.401 558.3 64.101 Q 563.9 60.801 567.2 55.201 Q 570.5 49.601 570.5 43.001 L 570.5 0.001 L 574.2 0.001 L 574.2 43.001 Q 574.2 50.601 570.4 57.051 Q 566.6 63.501 560.15 67.301 Q 553.7 71.101 546.1 71.101 Q 538.5 71.101 532.05 67.301 Q 525.6 63.501 521.8 57.051 Q 518 50.601 518 43.001 Z"
              id="7"
              vector-effect="non-scaling-stroke"
            />
            <path
              d="M 592 0.001 L 648.2 0.001 L 648.2 3.701 L 621.9 3.701 L 621.9 69.601 L 618.3 69.601 L 618.3 3.701 L 592 3.701 L 592 0.001 Z"
              id="8"
              vector-effect="non-scaling-stroke"
            />
            <path
              d="M 669.4 0.001 L 720 0.001 L 719.9 3.701 L 672.9 65.901 L 720 65.901 L 720 69.601 L 668.3 69.601 L 668.3 65.901 L 715.2 3.701 L 669.4 3.701 L 669.4 0.001 Z"
              id="9"
              vector-effect="non-scaling-stroke"
            />
            <path
              d="M 744.1 69.601 L 744.1 0.001 L 793.1 0.001 L 793.1 3.701 L 747.8 3.701 L 747.8 31.901 L 787.2 31.901 L 787.2 35.601 L 747.8 35.601 L 747.8 65.901 L 793.1 65.901 L 793.1 69.601 L 744.1 69.601 Z"
              id="10"
              vector-effect="non-scaling-stroke"
            />
            <path
              d="M 853.2 44.901 L 870.9 69.601 L 866.5 69.601 L 849.4 45.601 L 846.2 45.701 L 821.1 45.701 L 821.1 69.601 L 817.4 69.601 L 817.4 0.001 L 843.9 0.001 A 59.758 59.758 0 0 1 847.024 0.078 Q 848.56 0.159 849.905 0.323 A 30.566 30.566 0 0 1 851.45 0.551 A 24.562 24.562 0 0 1 855.348 1.552 A 20.896 20.896 0 0 1 857.2 2.301 Q 863.2 5.101 866.65 10.601 Q 870.1 16.101 870.1 22.801 Q 870.1 30.601 865.35 36.751 Q 860.6 42.901 853.2 44.901 Z M 821.1 42.001 L 847.2 42.001 Q 852.4 42.001 856.8 39.401 Q 861.2 36.801 863.8 32.401 Q 866.4 28.001 866.4 22.801 Q 866.4 17.001 863.35 12.301 Q 860.3 7.601 854.9 5.301 Q 851 3.701 843.9 3.701 L 821.1 3.701 L 821.1 42.001 Z"
              id="11"
              vector-effect="non-scaling-stroke"
            />
          </g>
        </svg>